<?xml version="1.0" encoding="UTF-8"?>
<svg version="1.1" xmlns="http://www.w3.org/2000/svg" width="600" height="600">
<path d="M0 0 C198 0 396 0 600 0 C600 198 600 396 600 600 C402 600 204 600 0 600 C0 402 0 204 0 0 Z " fill="#FEFEFE" transform="translate(0,0)"/>
<path d="M0 0 C3.50114778 2.84166665 6.78481859 5.83977896 10 9 C10.86818359 9.84884766 10.86818359 9.84884766 11.75390625 10.71484375 C15.0972558 14.28515697 16.64564045 17.63342003 18.4375 22.1875 C20.3360128 26.23062911 21.23794052 27.67502981 25.3984375 29.44921875 C28.0110323 30.13517021 30.65099671 30.64377324 33.30078125 31.1640625 C41.75018431 33.0734313 48.17484304 38.96631348 53 46 C58.32405739 56.0688132 61.06642999 65.71061275 57.75 76.97265625 C53.87864648 87.43740873 48.47318715 95.69202828 38.40625 100.89453125 C37.21515625 101.44173828 37.21515625 101.44173828 36 102 C35.09281219 102.50979401 34.18562439 103.01958801 33.25094604 103.54483032 C27.35435142 106.03839832 20.8642692 105.41751477 14.57861328 105.38818359 C13.11436574 105.39225303 11.65012127 105.397597 10.18588257 105.40411377 C6.22293218 105.41775142 2.26021699 105.41250285 -1.70273733 105.40297651 C-5.85986539 105.39535857 -10.01697389 105.40243171 -14.17410278 105.40713501 C-21.15630694 105.41258757 -28.1384158 105.40541535 -35.12060547 105.39111328 C-43.17712235 105.37480049 -51.23341127 105.38006726 -59.2899226 105.3965925 C-66.22095236 105.41023691 -73.15191376 105.41211223 -80.08295262 105.40427649 C-84.216339 105.39961453 -88.3496185 105.39893399 -92.48299789 105.40888596 C-96.37206226 105.41759602 -100.26083493 105.41146059 -104.14986801 105.39420319 C-105.57158933 105.39025924 -106.99333548 105.39133625 -108.41504669 105.39799118 C-120.15368836 105.44784351 -129.21519549 104.19173754 -138 96 C-144.79816984 88.70965497 -147.67787693 80.78622932 -147.34375 70.83203125 C-146.26826737 61.97152092 -142.63795517 54.93638267 -136 49 C-129.89618688 44.28997098 -123.79032197 41.85401441 -116 42 C-116.05220703 40.948125 -116.05220703 40.948125 -116.10546875 39.875 C-116.35030557 31.29405227 -115.30512026 25.56550339 -109.875 18.8125 C-105.47533433 14.23214991 -101.43778123 10.17561996 -94.75439453 9.91113281 C-91.24664953 9.95848906 -87.76586025 10.04482508 -84.27075195 10.359375 C-79.33596913 10.67279608 -79.33596913 10.67279608 -75.01416016 8.56225586 C-73.82052916 7.33924667 -72.66335573 6.07953401 -71.54638672 4.78613281 C-54.42793361 -14.98630213 -19.96496571 -14.45868061 0 0 Z " fill="#F9FEFE" transform="translate(343,219)"/>
<path d="M0 0 C1.34617171 -0.00571121 2.69233858 -0.01267836 4.03849792 -0.02079773 C7.67494666 -0.03866142 11.31115321 -0.0375737 14.94763255 -0.03185534 C17.99173022 -0.02875366 21.03578202 -0.03486678 24.07987314 -0.04089409 C31.26520203 -0.05491536 38.45041197 -0.05339803 45.63574219 -0.04199219 C53.03057557 -0.03051265 60.42504619 -0.04458912 67.81983179 -0.07138866 C74.18613665 -0.09359083 80.55232801 -0.10017292 86.91866881 -0.09431225 C90.71338918 -0.0909523 94.50787707 -0.09329323 98.30256462 -0.11056328 C101.87243791 -0.12610284 105.4417764 -0.12200031 109.0116291 -0.10325813 C110.93378676 -0.09785341 112.85596883 -0.11203283 114.77807617 -0.12695312 C124.31719763 -0.04621996 131.88176144 1.98689469 138.99243164 8.58374023 C143.90866354 14.26851459 146.37316856 20.44437039 145.91430664 27.96264648 C144.76801574 36.01244215 141.86083228 42.08468678 135.56665039 47.40405273 C132.65632063 49.05212818 129.70750015 50.27181158 126.56665039 51.40405273 C125.57665039 51.89905273 125.57665039 51.89905273 124.56665039 52.40405273 C122.75217623 52.50811781 120.93388335 52.5479279 119.11645508 52.55795288 C117.95858994 52.56655334 116.80072479 52.57515381 115.60777283 52.58401489 C114.33092117 52.58827484 113.05406952 52.59253479 111.73852539 52.59692383 C110.38501271 52.60482466 109.03150213 52.6130936 107.67799377 52.6217041 C103.22423315 52.64794128 98.77046308 52.66324015 94.31665039 52.67749023 C92.78209426 52.6828505 91.24753819 52.68822801 89.71298218 52.69362259 C83.32548334 52.71525982 76.93798704 52.73399294 70.55046082 52.74524498 C61.40730088 52.76145794 52.26456774 52.79456092 43.12156868 52.85164583 C36.68830432 52.89043557 30.25515362 52.9098887 23.82177544 52.91516554 C19.98267416 52.91880864 16.14402789 52.93071647 12.30505371 52.96326828 C8.68680724 52.99350631 5.06928721 52.9996057 1.45094109 52.98788452 C-0.49618999 52.9875611 -2.44327727 53.01192548 -4.39024353 53.03726196 C-13.10122633 52.97587541 -20.03132957 51.46917123 -26.5723114 45.42879295 C-31.89007009 39.81180911 -34.54577716 34.37281498 -34.93334961 26.59155273 C-34.68388439 18.27604527 -31.65016051 12.1509918 -25.62084961 6.46655273 C-18.04125209 -0.11105108 -9.52383554 -0.03436709 0 0 Z " fill="#10A8EA" transform="translate(243.433349609375,265.595947265625)"/>
<path d="M0 0 C6.64041639 5.64577485 11.99072597 11.76767508 15.6875 19.6875 C17.06109056 22.30647933 17.7608051 23.48824695 20.453125 24.765625 C22.14839943 25.22409544 23.85392734 25.64584084 25.56640625 26.03515625 C37.3489548 29.10230616 45.94043454 37.5355972 52.1875 47.625 C59.15797339 60.43385134 60.33055575 73.89818995 56.2734375 87.94921875 C51.76198624 101.09844864 43.60705551 110.5006 31.46484375 117.3125 C22.20858783 121.53344446 14.19982436 122.18839297 4.03735352 122.15405273 C2.50546778 122.15976376 0.97358629 122.16673084 -0.55828857 122.17485046 C-4.69678678 122.19271584 -8.83507218 122.19162609 -12.97359729 122.18590808 C-16.43766924 122.18280672 -19.90170087 122.18891915 -23.36576706 122.19494683 C-31.54213763 122.20896859 -39.71840365 122.20745026 -47.89477539 122.19604492 C-56.31035604 122.18456482 -64.72561795 122.19864285 -73.14115661 122.2254414 C-80.3856185 122.24764106 -87.62998064 122.25422622 -94.87447411 122.24836498 C-99.19290274 122.24500454 -103.5111271 122.24734955 -107.8295269 122.26461601 C-111.89185966 122.28015147 -115.95372235 122.27605714 -120.01603699 122.25731087 C-121.50023373 122.25364321 -122.98446582 122.25667986 -124.46862984 122.26719666 C-138.87381649 122.36141906 -148.18080493 118.8287929 -158.62890625 108.90625 C-168.06278969 98.96297761 -170.28307531 87.37978268 -170.03125 74.125 C-169.44673971 62.88291872 -162.9254934 53.59980596 -155 46.0625 C-151.81414512 43.31946665 -148.79519588 41.91662404 -144.875 40.4375 C-140.95273746 38.8487485 -140.95273746 38.8487485 -138.53125 35.5703125 C-138.08659744 33.87110452 -137.69070698 32.15852256 -137.33984375 30.4375 C-135.24481398 21.80647915 -128.75848627 14.19168021 -121.5234375 9.28125 C-114.14091305 4.91769603 -108.23165814 3.64267395 -99.75 4.125 C-94.76475454 4.24618263 -94.76475454 4.24618263 -90.34765625 2.2578125 C-88.94630798 0.87529232 -87.56576926 -0.52853594 -86.203125 -1.94921875 C-62.48833762 -23.63867491 -23.49055759 -18.27758454 0 0 Z M-82.75 11.1875 C-86.2672979 14.63755544 -88.61641145 16.022262 -93.46875 16.17578125 C-96.11904137 16.13070574 -98.75467121 15.99974104 -101.40112305 15.85302734 C-107.63971817 15.55659812 -111.63641166 16.10890261 -116.77734375 19.98046875 C-117.40769531 20.56441406 -118.03804687 21.14835937 -118.6875 21.75 C-119.28691406 22.30300781 -119.88632813 22.85601562 -120.50390625 23.42578125 C-125.95252646 29.13698556 -127.84495074 34.9371921 -127.875 42.75 C-127.82743159 44.41715964 -127.77017696 46.08421233 -127.6875 47.75 C-128.244375 47.77578125 -128.80125 47.8015625 -129.375 47.828125 C-138.92005373 48.53755467 -146.32117754 52.5538791 -152.6875 59.75 C-158.19645191 68.59977671 -160.29898142 77.26738883 -158.07421875 87.59765625 C-154.93973059 97.41537027 -148.92902353 104.10181211 -139.86328125 108.875 C-135.44951909 110.65001387 -131.18693223 110.87970317 -126.46566772 110.90390015 C-125.21256805 110.91250061 -123.95946838 110.92110107 -122.668396 110.92996216 C-121.28723186 110.93439678 -119.90606728 110.9386952 -118.52490234 110.94287109 C-117.06419686 110.95077854 -115.6034933 110.95904789 -114.14279175 110.96765137 C-109.35302578 110.99379924 -104.56325141 111.00917274 -99.7734375 111.0234375 C-98.12033712 111.02880034 -96.46723679 111.03417785 -94.81413651 111.03956985 C-87.9341196 111.06118882 -81.05410497 111.07992286 -74.17406273 111.09119225 C-64.3365176 111.10741573 -54.49936834 111.14056568 -44.6619724 111.19759309 C-37.73267002 111.2363834 -30.80347311 111.25583571 -23.87406504 111.26111281 C-19.74156056 111.26475412 -15.60947901 111.2766443 -11.47709274 111.30921555 C-7.58467899 111.3394567 -3.69294053 111.34555167 0.19956589 111.33383179 C1.62047605 111.33361238 3.04141904 111.34180658 4.46221924 111.35948563 C16.94785309 111.50626631 27.05920462 108.37285108 36.3125 99.75 C42.13075891 93.37826403 46.6155888 85.46139001 47.3125 76.75 C47.38726562 75.96109375 47.46203125 75.1721875 47.5390625 74.359375 C48.08423637 64.3166985 44.36651586 55.30230108 38.0234375 47.55859375 C31.20638113 40.35243599 22.80796732 35.23931834 12.6796875 34.578125 C10.3125 33.75 10.3125 33.75 8.4609375 30.7578125 C7.8596363 29.46822836 7.26909887 28.17358891 6.6875 26.875 C-1.43982382 10.3305133 -15.42021694 2.32492519 -32.3125 -3.5 C-50.31468673 -7.54502576 -70.30841418 -2.53712435 -82.75 11.1875 Z " fill="#0FA7E9" transform="translate(354.6875,213.25)"/>
<path d="M0 0 C1.7348037 -0.01496269 1.7348037 -0.01496269 3.50465393 -0.03022766 C4.76967743 -0.03089233 6.03470093 -0.03155701 7.33805847 -0.03224182 C8.68688414 -0.03986533 10.03570546 -0.04829316 11.38452148 -0.0574646 C15.0458033 -0.07939896 18.70700159 -0.08820715 22.36834168 -0.09329104 C24.65728064 -0.09693618 26.94619777 -0.10317709 29.2351284 -0.11029243 C37.22485183 -0.13478422 45.21451037 -0.14783802 53.20426941 -0.15138245 C60.64454491 -0.1550165 68.08440758 -0.18490285 75.52455693 -0.22678703 C81.91791436 -0.26151282 88.31113513 -0.27693129 94.70458621 -0.27762848 C98.52062535 -0.27842059 102.33624398 -0.28712801 106.15218544 -0.31562614 C109.74339309 -0.34184631 113.33383283 -0.34399093 116.9250927 -0.3279705 C118.86441251 -0.32529806 120.80371762 -0.34731341 122.74290466 -0.37016296 C129.96631101 -0.30962474 133.99385482 0.25675633 139.32707214 5.27415466 C142.27228831 9.45603618 141.95605358 14.3587812 141.32707214 19.27415466 C139.09341694 23.82419304 136.81090581 26.02510687 132.32707214 28.27415466 C129.55777836 28.65726471 129.55777836 28.65726471 126.48919678 28.66856384 C125.321427 28.67991364 124.15365723 28.69126343 122.95050049 28.70295715 C121.67815048 28.70002655 120.40580048 28.69709595 119.09489441 28.69407654 C117.73444421 28.70142007 116.37400025 28.71000713 115.01356506 28.71974182 C111.32550406 28.74193603 107.63766662 28.74488961 103.94954801 28.74299431 C100.86803552 28.74287452 97.78657025 28.75144203 94.70507091 28.75977182 C87.43410105 28.77899805 80.163246 28.78189245 72.89225769 28.77513123 C65.39682422 28.76848946 57.90188273 28.7913616 50.40654904 28.82844496 C43.96561461 28.85915275 37.52483836 28.87050088 31.0838322 28.86660814 C27.23935715 28.86454187 23.39526505 28.87000057 19.55085945 28.89450073 C15.93499175 28.91678394 12.31992351 28.91487815 8.70405197 28.89457321 C6.74906374 28.88954445 4.79406051 28.90917005 2.83917236 28.92958069 C-6.74388033 28.83781964 -6.74388033 28.83781964 -10.38693237 25.87242126 C-11.14131088 25.01499329 -11.89568939 24.15756531 -12.67292786 23.27415466 C-13.31230286 22.55227966 -13.95167786 21.83040466 -14.61042786 21.08665466 C-16.26806927 16.69878033 -15.86014057 12.77117254 -14.67292786 8.27415466 C-11.27599154 2.09905482 -6.79985745 0.0314692 0 0 Z " fill="#F0FCFD" transform="translate(235.6729278564453,277.72584533691406)"/>
<path d="M0 0 C3.93524456 2.68212199 6.29413264 6.08759073 8.09765625 10.4296875 C8.96345187 18.04063502 8.89457598 25.1818476 4.09765625 31.4296875 C-0.12559205 36.05627974 -4.8584386 38.10490358 -11.05078125 38.765625 C-17.77738184 38.84706084 -23.53106476 38.84878521 -28.90234375 34.4296875 C-34.98417982 27.68098344 -36.3312863 23.07487508 -36.23828125 13.98828125 C-35.7696729 9.0243021 -34.43258039 5.93452675 -30.90234375 2.4296875 C-21.46814012 -5.00558586 -10.55713393 -5.92270271 0 0 Z " fill="#13A7E7" transform="translate(208.90234375,363.5703125)"/>
<path d="M0 0 C5.9090625 -0.12375 5.9090625 -0.12375 11.9375 -0.25 C13.16073975 -0.28641602 14.38397949 -0.32283203 15.64428711 -0.36035156 C23.08250064 -0.43521062 29.87722892 0.2247178 35.58154297 5.44824219 C40.33031974 10.88274437 41.46327816 15.11196102 41.3125 22.1796875 C40.66918468 27.98560827 38.29099002 31.64896393 34.3125 35.8125 C26.69789028 40.84101585 19.38546049 41.41662294 10.4375 41.1875 C6.993125 41.125625 3.54875 41.06375 0 41 C0 27.47 0 13.94 0 0 Z " fill="#17A6E3" transform="translate(336,361)"/>
<path d="M0 0 C4.125 -0.0825 8.25 -0.165 12.5 -0.25 C13.78455078 -0.28641602 15.06910156 -0.32283203 16.39257812 -0.36035156 C23.90530433 -0.43281407 29.82695853 0.00605325 35.51318359 5.44824219 C40.31112044 10.91537855 41.46469787 15.04541231 41.3125 22.1796875 C40.67755726 27.9100457 38.3217549 32.10169115 34 35.875 C29.2602156 39.23234728 26.58240161 40.25077737 20.703125 40.1953125 C19.61676758 40.19031738 18.53041016 40.18532227 17.41113281 40.18017578 C16.03795898 40.16196777 14.66478516 40.14375977 13.25 40.125 C6.69125 40.063125 6.69125 40.063125 0 40 C0 26.8 0 13.6 0 0 Z " fill="#0EA7E9" transform="translate(271,361)"/>
<path d="M0 0 C3.63 0 7.26 0 11 0 C13.42819586 5.35365524 15.84907285 10.71053524 18.26318359 16.07055664 C19.08571522 17.89405697 19.91025063 19.71665482 20.73681641 21.53833008 C21.92356042 24.1547231 23.10309479 26.77426161 24.28125 29.39453125 C24.65310425 30.21025101 25.0249585 31.02597076 25.40808105 31.8664093 C25.74843384 32.62697128 26.08878662 33.38753326 26.43945312 34.17114258 C26.7414563 34.83954666 27.04345947 35.50795074 27.35461426 36.1966095 C28 38 28 38 28 41 C24.7 41 21.4 41 18 41 C17.01 38.36 16.02 35.72 15 33 C8.73 33 2.46 33 -4 33 C-5.32 35.64 -6.64 38.28 -8 41 C-10.97 41 -13.94 41 -17 41 C-14.32191471 32.16928754 -10.54355658 23.86003714 -6.8125 15.4375 C-6.15132519 13.93701085 -5.49051481 12.43636106 -4.83007812 10.93554688 C-3.22424946 7.28849819 -1.61349872 3.64366145 0 0 Z " fill="#15A7E5" transform="translate(477,361)"/>
<path d="M0 0 C3.63 0 7.26 0 11 0 C12.93976267 4.28630532 14.87861328 8.57302162 16.81665039 12.86010742 C17.47493353 14.31594762 18.13345797 15.77167874 18.79223633 17.22729492 C19.74364956 19.32962287 20.69417029 21.43235245 21.64453125 23.53515625 C21.9352803 24.17711441 22.22602936 24.81907257 22.52558899 25.48048401 C23.35548513 27.31803123 24.17783247 29.15898182 25 31 C25.28902191 31.63219452 25.57804382 32.26438904 25.87582397 32.91574097 C27.16442186 35.79507934 28 37.80723815 28 41 C25.03 41 22.06 41 19 41 C17.68 38.36 16.36 35.72 15 33 C8.73 33 2.46 33 -4 33 C-4.99 35.64 -5.98 38.28 -7 41 C-10.3 41 -13.6 41 -17 41 C-14.71558102 33.65324488 -11.81290925 26.63085044 -8.7565918 19.57788086 C-7.93220994 17.67529108 -7.11313228 15.77048529 -6.29492188 13.86523438 C-4.28020677 9.19079649 -2.27685342 4.55370684 0 0 Z " fill="#0FA7E9" transform="translate(396,361)"/>
<path d="M0 0 C3.3 0 6.6 0 10 0 C10.01981934 0.79696289 10.03963867 1.59392578 10.06005859 2.41503906 C10.15533248 6.02702472 10.26500307 9.63843399 10.375 13.25 C10.4059375 14.50425781 10.436875 15.75851562 10.46875 17.05078125 C10.50742188 18.25605469 10.54609375 19.46132813 10.5859375 20.703125 C10.6173584 21.81333008 10.6487793 22.92353516 10.68115234 24.06738281 C10.99089737 26.9162781 11.43462483 28.6230776 13 31 C16.12942465 32.56471233 19.61082223 32.69701958 23 32 C25.86413364 29.78218556 26.89460681 28.58390468 27.54589844 24.97558594 C27.57731934 23.24743652 27.57731934 23.24743652 27.609375 21.484375 C27.64160156 20.23398437 27.67382812 18.98359375 27.70703125 17.6953125 C27.72121094 16.39335937 27.73539063 15.09140625 27.75 13.75 C27.77964844 12.43257813 27.80929688 11.11515625 27.83984375 9.7578125 C27.91055388 6.50514657 27.96324786 3.25319807 28 0 C30.97 0 33.94 0 37 0 C37.07455949 4.02009457 37.12879358 8.03991733 37.16479492 12.06054688 C37.17981428 13.42617816 37.20023608 14.79176176 37.22631836 16.15722656 C37.26300137 18.12803905 37.27818551 20.09921408 37.29296875 22.0703125 C37.3086792 23.25383301 37.32438965 24.43735352 37.34057617 25.65673828 C36.89425429 30.0380514 35.48466287 33.40955962 32.46484375 36.64453125 C25.73373521 41.79184955 20.39723884 41.66614967 12 41 C7.72426533 39.75082877 5.39490382 37.49882588 2.625 34 C0.1401995 29.412676 -0.12220317 25.90707259 -0.09765625 20.703125 C-0.09443359 19.49785156 -0.09121094 18.29257812 -0.08789062 17.05078125 C-0.07951172 15.79652344 -0.07113281 14.54226563 -0.0625 13.25 C-0.05798828 11.98027344 -0.05347656 10.71054687 -0.04882812 9.40234375 C-0.03704556 6.26818164 -0.02059416 3.13411459 0 0 Z " fill="#13A6E5" transform="translate(224,361)"/>
<path d="M0 0 C22.44 0 44.88 0 68 0 C68 3.96 68 7.92 68 12 C45.56 12 23.12 12 0 12 C0 8.04 0 4.08 0 0 Z " fill="#10A5E5" transform="translate(290,286)"/>
<path d="M0 0 C2.05433296 1.04000606 3.34570071 2.24309423 4.875 3.94921875 C3.48167426 7.31642262 1.8960714 8.93517115 -1.125 10.94921875 C-1.970625 10.28921875 -2.81625 9.62921875 -3.6875 8.94921875 C-7.67163009 6.63117943 -9.59044483 6.38239935 -14.125 6.94921875 C-18.00265844 8.29148513 -19.68057782 9.29739956 -22 12.69921875 C-23.30416721 16.46681291 -23.62023071 18.98737307 -23.125 22.94921875 C-21.09833762 26.65311896 -19.64455484 28.60284886 -16.125 30.94921875 C-10.51936619 31.75752175 -6.8637216 31.0632358 -2.125 27.94921875 C0.59663054 28.10931466 1.59223545 28.6967504 3.625 30.51171875 C4.0375 30.98609375 4.45 31.46046875 4.875 31.94921875 C3.72160823 35.53754871 1.56415428 37.43891083 -1.73828125 39.18359375 C-8.29122552 41.28568389 -16.38094811 41.17775363 -22.6875 38.32421875 C-27.92559882 35.1499533 -31.20979204 30.77044296 -33.125 24.94921875 C-33.957024 17.30620763 -33.96619349 11.09884291 -29.125 4.94921875 C-20.43880589 -3.27980725 -10.95908518 -3.80747629 0 0 Z " fill="#0DA7EB" transform="translate(128.125,362.05078125)"/>
<path d="M0 0 C11.88 0 23.76 0 36 0 C36 2.31 36 4.62 36 7 C31.71 7 27.42 7 23 7 C23 18.22 23 29.44 23 41 C19.7 41 16.4 41 13 41 C13 30.11 13 19.22 13 8 C8.71 8 4.42 8 0 8 C0 5.36 0 2.72 0 0 Z " fill="#1EA7E1" transform="translate(424,361)"/>
<path d="M0 0 C4.1544881 3.57479209 5.51391779 5.75026011 6.125 11.25 C5.95597375 15.51590057 4.43859882 18.0264653 1.6875 21.3125 C-2.09793929 24.68717886 -4.89832614 24.88340362 -9.8359375 24.73046875 C-13.96081619 24.03431415 -15.54342204 22.42771271 -18.3125 19.3125 C-20.78287796 15.44582146 -20.47765022 11.86403275 -19.85546875 7.46484375 C-18.87094877 3.5621782 -16.7046014 1.35657605 -13.5625 -1 C-8.44956819 -2.56228472 -4.66868121 -2.37838477 0 0 Z " fill="#F3FCFD" transform="translate(202.3125,369.6875)"/>
<path d="M0 0 C2.97 0 5.94 0 9 0 C9 10.89 9 21.78 9 33 C15.93 33 22.86 33 30 33 C30 35.64 30 38.28 30 41 C20.1 41 10.2 41 0 41 C0 27.47 0 13.94 0 0 Z " fill="#0DA8EC" transform="translate(140,361)"/>
<path d="M0 0 C14.54545455 0 14.54545455 0 20.375 5.0625 C22.75380468 9.36264691 22.64162501 13.19177304 22 18 C20.70079404 21.39237111 19.49170579 22.62475085 16.625 24.8125 C13 26 13 26 0 26 C0 17.42 0 8.84 0 0 Z " fill="#FCFEFE" transform="translate(280,368)"/>
<path d="M0 0 C14.55882353 0 14.55882353 0 20.4375 5.125 C22.62551578 9.15094904 22.66203542 12.51287106 22 17 C20.15401065 21.61497339 17.48092 23.91405449 13 26 C8.71 26 4.42 26 0 26 C0 17.42 0 8.84 0 0 Z " fill="#FAFEFE" transform="translate(345,368)"/>
<path d="M0 0 C0 0.66 0 1.32 0 2 C-6.45883879 6.7387727 -12.17512786 6.5464977 -20.00366211 6.45410156 C-21.30190918 6.45468567 -22.60015625 6.45526978 -23.93774414 6.45587158 C-27.48082938 6.45701484 -31.02336813 6.43356952 -34.56632686 6.40557575 C-38.2751922 6.38049665 -41.98407137 6.37821499 -45.69300842 6.37347412 C-52.70879868 6.36106337 -59.72433831 6.32826777 -66.74001843 6.28807616 C-74.73031974 6.24329902 -82.7206333 6.22135652 -90.71102893 6.20129442 C-107.14083244 6.15953323 -123.57038419 6.08921851 -140 6 C-140.33 5.01 -140.66 4.02 -141 3 C-140.30185779 2.99668985 -139.60371557 2.99337971 -138.88441753 2.98996925 C-121.90915228 2.90880339 -104.93398143 2.81673213 -87.95884228 2.71247292 C-79.74984291 2.66231816 -71.54085367 2.61587562 -63.33178711 2.578125 C-56.17805255 2.54521812 -49.02439596 2.50539421 -41.87074739 2.45720994 C-38.08178015 2.4319319 -34.29286472 2.41015454 -30.50383568 2.39665604 C-26.93910517 2.38384742 -23.37455222 2.36180623 -19.80991936 2.33261681 C-17.87464689 2.31919238 -15.93931399 2.3156172 -14.0039978 2.31230164 C-12.28132439 2.29555641 -12.28132439 2.29555641 -10.52384949 2.2784729 C-9.5237041 2.27294214 -8.52355871 2.26741138 -7.49310589 2.26171303 C-4.45431012 1.94271637 -2.99685533 0 0 0 Z " fill="#2EA9DB" transform="translate(373,303)"/>
<path d="M0 0 C6.75 1.875 6.75 1.875 9 3 C11.16649576 3.09443365 13.33599486 3.12189985 15.50454712 3.12025452 C16.5177896 3.12153615 16.5177896 3.12153615 17.55150163 3.12284368 C19.82553939 3.12449693 22.09950414 3.11897966 24.37353516 3.11352539 C25.99942523 3.11324346 27.62531544 3.11340137 29.25120544 3.1139679 C33.67451074 3.11425564 38.0977891 3.10836263 42.52108812 3.10139394 C47.14022721 3.09515656 51.75936687 3.0945563 56.37850952 3.09336853 C65.12973441 3.09025635 73.88094686 3.08204448 82.63216627 3.07201904 C92.59332735 3.06085439 102.55448902 3.05534656 112.5156548 3.05032361 C133.01044349 3.03986178 153.50522096 3.02226452 174 3 C170.42649476 6.57350524 166.49931029 6.12891995 161.62594604 6.14717102 C160.3138768 6.15432632 159.00180756 6.16148163 157.64997864 6.16885376 C156.19747949 6.17169388 154.74498008 6.17440563 153.29248047 6.17700195 C151.76133572 6.1832692 150.23019248 6.18991623 148.6990509 6.19691467 C143.67177382 6.21792994 138.64449653 6.22831607 133.6171875 6.23828125 C131.8838919 6.24233003 130.15059646 6.24644699 128.41730118 6.25063133 C120.27156997 6.26967903 112.12584779 6.28390981 103.98009861 6.2922433 C94.59098807 6.30200841 85.20211374 6.32831066 75.81308639 6.36874419 C68.5475148 6.39895441 61.28201072 6.4137169 54.01637757 6.41702431 C49.68107815 6.41936959 45.3460312 6.42826142 41.01079941 6.45348549 C36.92805379 6.47685674 32.84572523 6.48096338 28.76292992 6.47072411 C27.2706596 6.47023079 25.77836811 6.47649049 24.28616142 6.49028015 C16.0206459 6.5623423 8.28679372 6.41104506 1 2 C0.67 1.34 0.34 0.68 0 0 Z " fill="#199FD8" transform="translate(206,329)"/>
<path d="M0 0 C2 1 2 1 3.3125 3.75 C5.148947 7.28686088 6.94426287 9.45355239 10 12 C12.67790896 12.87238858 12.67790896 12.87238858 15 13 C15 13.66 15 14.32 15 15 C33.57579031 15.04670152 52.15156872 15.08197978 70.72740555 15.10362434 C79.35230724 15.11394099 87.97717248 15.12800876 96.60205078 15.15087891 C104.11867858 15.17080088 111.63527997 15.18371361 119.15193343 15.18817699 C123.13267646 15.19078639 127.11334396 15.1969277 131.09406281 15.21146011 C134.84012432 15.22502519 138.58607911 15.22922483 142.33216286 15.22621536 C143.70761253 15.22676601 145.08306574 15.23074989 146.45849419 15.23841095 C148.33568623 15.24835476 150.21293541 15.24477889 152.09014893 15.24050903 C153.14099293 15.24235262 154.19183693 15.24419621 155.27452469 15.24609566 C157.98809026 15.17107086 157.98809026 15.17107086 160.11936569 13.92246819 C162 13 162 13 164.25 13.375 C164.8275 13.58125 165.405 13.7875 166 14 C158.54013002 18.2874102 151.84650167 18.57760348 143.37719727 18.53344727 C142.02264471 18.54051786 140.66810006 18.54926764 139.31356812 18.55955505 C135.65845645 18.5819317 132.00378018 18.57913712 128.34862638 18.57023358 C125.28716351 18.56509944 122.22578074 18.57243583 119.16432613 18.57970566 C111.9371967 18.59666747 104.71027861 18.59317659 97.4831543 18.57641602 C90.04904508 18.5594974 82.61552318 18.57533365 75.18147808 18.6076389 C68.77775236 18.63440351 62.3742087 18.64159238 55.9704327 18.63312382 C52.15497129 18.62821463 48.33986301 18.6303003 44.52444649 18.65091133 C40.93474886 18.66937734 37.34589059 18.66317896 33.75623703 18.63871193 C31.82593208 18.63138345 29.89558166 18.64847457 27.96534729 18.66653442 C19.06074365 18.57025332 12.42958748 16.69482178 5.52734375 10.9375 C5.00269531 10.298125 4.47804687 9.65875 3.9375 9 C3.38964844 8.360625 2.84179688 7.72125 2.27734375 7.0625 C0.82105973 4.71106892 0.382765 2.72188444 0 0 Z " fill="#36A8D8" transform="translate(211,300)"/>
<path d="M0 0 C1.14115265 -0.00571014 2.2823053 -0.01142029 3.45803833 -0.01730347 C4.7059314 -0.01842133 5.95382446 -0.01953918 7.23953247 -0.02069092 C8.55696442 -0.02565582 9.87439636 -0.03062073 11.23175049 -0.03573608 C14.84337106 -0.04883764 18.45497306 -0.05530045 22.06661367 -0.05974674 C24.32404549 -0.06268062 26.58147225 -0.06678599 28.83890152 -0.07125092 C35.90500867 -0.08491889 42.97110425 -0.09458941 50.0372237 -0.09845281 C58.1885296 -0.10293435 66.33966788 -0.12048952 74.49092281 -0.1494534 C80.79593176 -0.17107804 87.10089358 -0.18115748 93.40593922 -0.18249393 C97.16986041 -0.18354124 100.93362387 -0.18943348 104.69750595 -0.20731354 C108.23848836 -0.22380825 111.77919471 -0.22594311 115.32020187 -0.21717453 C117.23463703 -0.21603877 119.14906308 -0.22974467 121.06344604 -0.243927 C131.71645823 -0.19219291 131.71645823 -0.19219291 136.39627075 3.14044189 C137.77127075 5.32794189 137.77127075 5.32794189 138.39627075 7.14044189 C137.51795593 6.49013504 136.63964111 5.83982819 135.73471069 5.16981506 C130.17269187 2.0221974 124.2039506 2.60723278 117.98123169 2.67047119 C116.6254764 2.66996181 115.26972081 2.66770237 113.91397095 2.66383362 C110.2488115 2.65843411 106.58416134 2.67776968 102.91909313 2.70193458 C99.07949116 2.72328662 95.23988995 2.72263796 91.40023804 2.72462463 C84.95774611 2.73106252 78.51544473 2.75227707 72.07302856 2.78375244 C63.80163222 2.82411017 55.53035968 2.84145198 47.2588768 2.85106182 C40.14454445 2.85935928 33.03023832 2.8765921 25.91592884 2.89609933 C24.38933547 2.90014835 22.86274124 2.9038879 21.33614635 2.90732169 C16.98770376 2.91710566 12.6393353 2.93159224 8.29093933 2.95416069 C6.3437827 2.9632074 4.39660565 2.967461 2.44943237 2.97158813 C1.29427124 2.97874344 0.13911011 2.98589874 -1.05105591 2.99327087 C-2.55975943 2.9996811 -2.55975943 2.9996811 -4.0989418 3.00622082 C-6.73341059 3.03644035 -6.73341059 3.03644035 -9.60372925 4.14044189 C-9.60372925 3.15044189 -9.60372925 2.16044189 -9.60372925 1.14044189 C-6.34400589 0.16985081 -3.39468187 0.01018532 0 0 Z " fill="#33A9D8" transform="translate(236.60372924804688,275.85955810546875)"/>
<path d="M0 0 C2.97 0 5.94 0 9 0 C9 10.89 9 21.78 9 33 C15.93 33 22.86 33 30 33 C30 35.64 30 38.28 30 41 C20.1 41 10.2 41 0 41 C0 27.47 0 13.94 0 0 Z M1 1 C1 13.54 1 26.08 1 39 C9.91 38.67 18.82 38.34 28 38 C28 37.01 28 36.02 28 35 C21.4 35 14.8 35 8 35 C8 23.78 8 12.56 8 1 C5.69 1 3.38 1 1 1 Z " fill="#2BA3D4" transform="translate(140,361)"/>
<path d="M0 0 C4.125 -0.0825 8.25 -0.165 12.5 -0.25 C13.78455078 -0.28641602 15.06910156 -0.32283203 16.39257812 -0.36035156 C23.41099874 -0.42804635 28.07998489 0.12037845 34 4 C34.495 4.99 34.495 4.99 35 6 C29.25 5.25 29.25 5.25 27 3 C24.3817233 2.62826984 24.3817233 2.62826984 21.3359375 2.5859375 C20.3257959 2.55032715 19.3156543 2.5147168 18.27490234 2.47802734 C16.34445068 2.42702881 16.34445068 2.42702881 14.375 2.375 C10.29125 2.25125 6.2075 2.1275 2 2 C2 13.88 2 25.76 2 38 C10.58 38 19.16 38 28 38 C28 37.34 28 36.68 28 36 C30.97 35.505 30.97 35.505 34 35 C31.00717664 38.2921057 28.57282966 39.87822747 24.06738281 40.22705078 C22.95717773 40.21657715 21.84697266 40.20610352 20.703125 40.1953125 C19.61676758 40.19031738 18.53041016 40.18532227 17.41113281 40.18017578 C16.03795898 40.16196777 14.66478516 40.14375977 13.25 40.125 C6.69125 40.063125 6.69125 40.063125 0 40 C0 26.8 0 13.6 0 0 Z " fill="#1E9ED4" transform="translate(271,361)"/>
<path d="M0 0 C2.97 0.99 5.94 1.98 9 3 C9 3.66 9 4.32 9 5 C10.7015625 4.9690625 10.7015625 4.9690625 12.4375 4.9375 C16 5 16 5 17 6 C18.89792981 6.10880464 20.7999307 6.1468932 22.70094299 6.15821838 C23.9391983 6.1680072 25.17745361 6.17779602 26.45323181 6.18788147 C27.83804283 6.19378642 29.22285425 6.19959682 30.60766602 6.20532227 C32.05607384 6.21489543 33.50447885 6.22490517 34.95288086 6.23532104 C38.89689271 6.2624371 42.84091661 6.28341025 46.78497052 6.30332303 C50.90231875 6.32514141 55.01962956 6.35255032 59.13694763 6.37937927 C66.93903149 6.42936244 74.74113605 6.47428032 82.54326051 6.51740164 C91.42342961 6.56672606 100.30356118 6.62166191 109.18369401 6.67708123 C127.45576118 6.79098757 145.72786375 6.89780767 164 7 C164 6.34 164 5.68 164 5 C165.65 5 167.3 5 169 5 C169 4.34 169 3.68 169 3 C171.97 2.34 174.94 1.68 178 1 C171.32083607 7.67916393 163.46929823 8.45988778 154.33657837 8.53100586 C152.97039517 8.52163765 151.60421473 8.5118585 150.23803711 8.50170898 C148.77334577 8.50549938 147.30865803 8.51100533 145.84397888 8.51808167 C141.89352486 8.53195861 137.94351016 8.52092223 133.99308085 8.50437045 C129.8439816 8.49044323 125.69490587 8.49698862 121.54579163 8.50050354 C114.58148176 8.50319933 107.61734487 8.48978355 100.65307617 8.46655273 C92.61864136 8.43993649 84.58449541 8.43820157 76.5500316 8.4499411 C68.79725407 8.46074533 61.04458031 8.45451177 53.29181099 8.44038582 C50.00295094 8.43464997 46.71416742 8.43468966 43.42530632 8.43945122 C39.5484971 8.44424734 35.6720015 8.4340112 31.79525185 8.41249657 C30.3783715 8.4069646 28.9614608 8.40643013 27.54457855 8.41144943 C16.99050745 8.44413008 8.50875068 7.54519283 0 1 C0 0.67 0 0.34 0 0 Z " fill="#D0FBFD" transform="translate(207,316)"/>
<path d="M0 0 C0.639375 0.268125 1.27875 0.53625 1.9375 0.8125 C3.4534375 1.4003125 3.4534375 1.4003125 5 2 C5.5788048 2.24995979 6.1576096 2.49991959 6.75395393 2.75745392 C13.93337344 5.56166781 21.00585579 5.43811645 28.61669922 5.41992188 C30.07799931 5.42727355 31.53929361 5.43586295 33.00057983 5.44558716 C36.94699259 5.46769602 40.8931959 5.47073923 44.83966208 5.46883965 C48.144582 5.46871946 51.44945833 5.47730325 54.75436604 5.48561716 C62.55681434 5.50481283 70.35915566 5.50774902 78.16162109 5.50097656 C86.18757241 5.49433786 94.21306391 5.51720188 102.238922 5.55429029 C109.15134686 5.5850641 116.06362438 5.59633905 122.9761163 5.59245348 C127.09510812 5.59039397 131.2137419 5.59574086 135.3326683 5.62034607 C139.20877175 5.64273857 143.08413144 5.6406331 146.96023941 5.62041855 C148.374683 5.61703047 149.78917791 5.62200168 151.20355225 5.63640213 C159.41521157 5.71417634 165.61163141 4.95351764 172.92140388 1.07212067 C175 0 175 0 177 0 C177 0.99 177 1.98 177 3 C168.23766547 7.01156321 160.31518727 7.57600994 150.7890625 7.51757812 C149.28805872 7.52301009 147.78706029 7.53013874 146.28607178 7.53881836 C142.24052398 7.55692724 138.19538793 7.5500362 134.14983368 7.53730202 C129.8975674 7.52710935 125.64533421 7.53658497 121.39306641 7.54284668 C114.25481904 7.55010496 107.11673772 7.54058336 99.97851562 7.52148438 C91.74921422 7.49971908 83.52030934 7.50677175 75.29101753 7.52879 C68.20020234 7.54699607 61.10950588 7.54947698 54.01867485 7.53903532 C49.79471216 7.53282889 45.57093529 7.53188556 41.34698486 7.54518127 C37.37406283 7.5568154 33.40164743 7.54857777 29.4287796 7.52560425 C27.97887255 7.5203572 26.52892217 7.5217615 25.0790329 7.53065491 C16.66524977 7.57746897 8.45909854 7.35532169 1 3 C0.67 2.01 0.34 1.02 0 0 Z " fill="#37A4D1" transform="translate(208,318)"/>
<path d="M0 0 C3.96 0 7.92 0 12 0 C12 3.96 12 7.92 12 12 C8.04 12 4.08 12 0 12 C0 8.04 0 4.08 0 0 Z " fill="#15A3E1" transform="translate(240,286)"/>
<path d="M0 0 C3.96 0 7.92 0 12 0 C12 3.96 12 7.92 12 12 C8.04 12 4.08 12 0 12 C0 8.04 0 4.08 0 0 Z " fill="#15A3E0" transform="translate(265,286)"/>
<path d="M0 0 C3.3 0 6.6 0 10 0 C10.01981934 0.79696289 10.03963867 1.59392578 10.06005859 2.41503906 C10.15533248 6.02702472 10.26500307 9.63843399 10.375 13.25 C10.4059375 14.50425781 10.436875 15.75851562 10.46875 17.05078125 C10.50742188 18.25605469 10.54609375 19.46132813 10.5859375 20.703125 C10.6173584 21.81333008 10.6487793 22.92353516 10.68115234 24.06738281 C10.99082014 26.91556776 11.41636203 28.63290734 13 31 C15.17208588 31.91160093 15.17208588 31.91160093 17.625 32.25 C18.44226563 32.39953125 19.25953125 32.5490625 20.1015625 32.703125 C20.72804687 32.80109375 21.35453125 32.8990625 22 33 C22 33.33 22 33.66 22 34 C14.7888405 34.48889217 14.7888405 34.48889217 11.390625 32.3828125 C9 30 9 30 8.43237305 26.97558594 C8.45855713 25.82348633 8.48474121 24.67138672 8.51171875 23.484375 C8.52783203 22.23398437 8.54394531 20.98359375 8.56054688 19.6953125 C8.60244141 18.39335937 8.64433594 17.09140625 8.6875 15.75 C8.71005859 14.43257813 8.73261719 13.11515625 8.75585938 11.7578125 C8.81480406 8.50406596 8.89704947 5.25260329 9 2 C6.69 2 4.38 2 2 2 C2.33 11.9 2.66 21.8 3 32 C3.66 32 4.32 32 5 32 C5.33 33.32 5.66 34.64 6 36 C6.66 36 7.32 36 8 36 C8 36.66 8 37.32 8 38 C4.15521125 36.54163185 2.8177085 34.63541701 1 31 C-0.12279269 27.54832871 -0.11470504 24.3174685 -0.09765625 20.703125 C-0.09443359 19.49785156 -0.09121094 18.29257812 -0.08789062 17.05078125 C-0.07951172 15.79652344 -0.07113281 14.54226563 -0.0625 13.25 C-0.05798828 11.98027344 -0.05347656 10.71054687 -0.04882812 9.40234375 C-0.03704556 6.26818164 -0.02059416 3.13411459 0 0 Z " fill="#34A7D6" transform="translate(224,361)"/>
<path d="M0 0 C1.12591553 0.00523682 2.25183105 0.01047363 3.41186523 0.01586914 C4.62680664 0.0190918 5.84174805 0.02231445 7.09350586 0.02563477 C8.37290039 0.03401367 9.65229492 0.04239258 10.97045898 0.05102539 C12.2537207 0.05553711 13.53698242 0.06004883 14.85913086 0.06469727 C18.04211921 0.07652994 21.22501661 0.09301471 24.40795898 0.11352539 C24.73795898 1.10352539 25.06795898 2.09352539 25.40795898 3.11352539 C16.49795898 2.78352539 7.58795898 2.45352539 -1.59204102 2.11352539 C-1.59204102 15.31352539 -1.59204102 28.51352539 -1.59204102 42.11352539 C-2.25204102 42.11352539 -2.91204102 42.11352539 -3.59204102 42.11352539 C-3.61668739 36.29280917 -3.63487532 30.47212305 -3.64697266 24.65136719 C-3.65201369 22.66959098 -3.6588464 20.6878185 -3.66748047 18.70605469 C-3.67955616 15.86400431 -3.68527147 13.02200292 -3.68969727 10.17993164 C-3.69485855 9.28826797 -3.70001984 8.39660431 -3.70533752 7.47792053 C-3.70553278 5.35611938 -3.65414132 3.23441759 -3.59204102 1.11352539 C-2.59204102 0.11352539 -2.59204102 0.11352539 0 0 Z " fill="#C2ECF8" transform="translate(337.592041015625,358.886474609375)"/>
<path d="M0 0 C0 0.66 0 1.32 0 2 C-0.680625 2.37125 -1.36125 2.7425 -2.0625 3.125 C-9.76617568 8.04223979 -13.01637767 14.57618687 -15.95703125 23.046875 C-16.30121094 24.02140625 -16.64539063 24.9959375 -17 26 C-17.2578125 26.7321875 -17.515625 27.464375 -17.78125 28.21875 C-19.58084658 30.84892961 -21.78458997 31.51161931 -24.6875 32.75 C-30.68311762 35.57527305 -34.03135951 38.81534153 -38 44 C-39.55859375 45.73828125 -39.55859375 45.73828125 -41 47 C-41.66 47 -42.32 47 -43 47 C-43.99 49.475 -43.99 49.475 -45 52 C-45.33 51.34 -45.66 50.68 -46 50 C-40.76526664 41.13174584 -34.92143628 34.32616351 -25.125 30.625 C-21.2359898 29.07224452 -21.2359898 29.07224452 -18.84765625 25.82421875 C-18.40078109 24.12397776 -18.00351921 22.4100541 -17.65234375 20.6875 C-15.74026935 12.81021144 -10.09205247 6.13428133 -4 1 C-2 0 -2 0 0 0 Z " fill="#2FA4D5" transform="translate(235,223)"/>
<path d="M0 0 C-0.53109375 0.24234375 -1.0621875 0.4846875 -1.609375 0.734375 C-7.25656794 3.41370012 -11.57502133 5.98359724 -14 12 C-14.88775202 19.58794362 -14.96910094 26.21685755 -10.38671875 32.546875 C-6.14310557 36.99370346 -0.49811164 38.10647917 5.4375 38.25 C9.86108746 38.15879201 13.76119553 37.23310676 18 36 C14.98441516 39.46792257 12.55297316 39.87469396 8.046875 40.23828125 C1.23858884 40.39154836 -4.55816194 40.47714859 -10 36 C-16.08183607 29.25129594 -17.42894255 24.64518758 -17.3359375 15.55859375 C-16.86660421 10.58693527 -15.52437649 7.51592474 -12 4 C-4.99637935 -1.76931919 -4.99637935 -1.76931919 0 0 Z " fill="#34A4D3" transform="translate(190,362)"/>
<path d="M0 0 C0.66 0.33 1.32 0.66 2 1 C-2.57666989 6.74327202 -2.57666989 6.74327202 -6.20898438 7.3984375 C-8.74042928 7.37372038 -11.22750735 7.21267798 -13.75 7 C-20.89210825 6.70548007 -26.13774716 6.70036183 -32.0859375 11.15625 C-40.39928003 19.16420444 -42.23729558 26.72000301 -43 38 C-44.65 38 -46.3 38 -48 38 C-48 37.34 -48 36.68 -48 36 C-47.01 36 -46.02 36 -45 36 C-44.95101562 35.27554688 -44.90203125 34.55109375 -44.8515625 33.8046875 C-44.03997854 23.31006731 -41.82815477 17.3388951 -34 10 C-33.34 10 -32.68 10 -32 10 C-32 9.34 -32 8.68 -32 8 C-24.76997444 3.93083989 -18.32383698 3.64433454 -10.24658203 4.1484375 C-6.44926962 4.31833231 -4.51031272 4.4019694 -1.4609375 2 C-0.97882813 1.34 -0.49671875 0.68 0 0 Z " fill="#30A3D2" transform="translate(270,223)"/>
<path d="M0 0 C3.30616284 3.80208727 7 9.83581485 7 15 C2.71 15 -1.58 15 -6 15 C-4.32819664 9.74576086 -2.62305301 4.87138415 0 0 Z " fill="#D8F4FB" transform="translate(401,371)"/>
<path d="M0 0 C3.30616284 3.80208727 7 9.83581485 7 15 C2.71 15 -1.58 15 -6 15 C-4.32819664 9.74576086 -2.62305301 4.87138415 0 0 Z " fill="#F2FDFE" transform="translate(482,371)"/>
<path d="M0 0 C1.64574566 -0.02688151 3.29161413 -0.04634123 4.9375 -0.0625 C5.85402344 -0.07410156 6.77054688 -0.08570313 7.71484375 -0.09765625 C10 0 10 0 11 1 C11.08843793 3.44830426 11.11528752 5.86820599 11.09765625 8.31640625 C11.0962413 9.04746078 11.09482635 9.77851532 11.09336853 10.53172302 C11.08775408 12.87535632 11.07519922 15.21889539 11.0625 17.5625 C11.05748686 19.14778508 11.05292363 20.73307166 11.04882812 22.31835938 C11.03862921 26.21230543 11.01905687 30.10604677 11 34 C17.27 34 23.54 34 30 34 C30 34.33 30 34.66 30 35 C23.07 35 16.14 35 9 35 C9 24.11 9 13.22 9 2 C6.03 2 3.06 2 0 2 C0 1.34 0 0.68 0 0 Z " fill="#B5EAF9" transform="translate(140,359)"/>
<path d="M0 0 C12.375 0 12.375 0 17 2 C12.04380087 3.65206638 7.1596656 2.49932248 2 2 C2 9.26 2 16.52 2 24 C6.95 23.67 11.9 23.34 17 23 C13 26 13 26 0 26 C0 17.42 0 8.84 0 0 Z " fill="#C6F2FC" transform="translate(345,368)"/>
<path d="M0 0 C3.63 0 7.26 0 11 0 C11.86366822 1.78710586 12.71568594 3.5798465 13.5625 5.375 C14.03816406 6.37273437 14.51382812 7.37046875 15.00390625 8.3984375 C15.33261719 9.25695312 15.66132813 10.11546875 16 11 C15.67 11.66 15.34 12.32 15 13 C13.46254804 10.43758007 11.99929378 7.99836455 10.8125 5.25 C8.68689898 2.61132287 8.04923597 2.592092 4.8125 2.1875 C2.9253125 2.0946875 2.9253125 2.0946875 1 2 C0.87625 2.680625 0.7525 3.36125 0.625 4.0625 C-0.09742415 7.4578935 -0.86338705 10.71645149 -2 14 C-2.99 14.33 -3.98 14.66 -5 15 C-5.2165625 16.11375 -5.2165625 16.11375 -5.4375 17.25 C-5.90187492 19.52027739 -6.41863569 21.75759479 -7 24 C-7.66 24 -8.32 24 -9 24 C-9.33 25.65 -9.66 27.3 -10 29 C-10.66 29 -11.32 29 -12 29 C-8.95881788 18.98198831 -4.67830731 9.35661461 0 0 Z " fill="#33A6D5" transform="translate(396,361)"/>
<path d="M0 0 C4.29 0 8.58 0 13 0 C13.8851564 1.77031281 14.76971907 3.54092359 15.65234375 5.3125 C16.67817255 7.35821076 17.71381088 9.39900574 18.75390625 11.4375 C19.37762148 12.66665788 20.00131932 13.89582459 20.625 15.125 C21.21539062 16.28257812 21.80578125 17.44015625 22.4140625 18.6328125 C26.44081711 27.18222747 26.44081711 27.18222747 25 32 C23.14384413 27.90871045 21.29256098 23.81526278 19.44580078 19.71972656 C18.8166096 18.3262159 18.1860809 16.93330836 17.55419922 15.54101562 C16.64720626 13.5419291 15.74501462 11.54073687 14.84375 9.5390625 C14.55939087 8.91504547 14.27503174 8.29102844 13.98205566 7.64810181 C12 3.22774341 12 3.22774341 12 1 C8.37 1 4.74 1 1 1 C0.67 2.32 0.34 3.64 0 5 C-0.51450069 6.30842992 -1.05885705 7.60542317 -1.62890625 8.890625 C-1.94150391 9.59960938 -2.25410156 10.30859375 -2.57617188 11.0390625 C-2.90166016 11.76867187 -3.22714844 12.49828125 -3.5625 13.25 C-3.89185547 13.99507813 -4.22121094 14.74015625 -4.56054688 15.5078125 C-5.37085066 17.33980368 -6.18504434 19.17007345 -7 21 C-8.12011719 17.3046875 -8.12011719 17.3046875 -7.0390625 14.5625 C-6.57242187 13.716875 -6.10578125 12.87125 -5.625 12 C-3.9862813 8.99720819 -2.67003519 6.36575816 -2 3 C-1.34 3 -0.68 3 0 3 C0 2.01 0 1.02 0 0 Z " fill="#D0F7FD" transform="translate(395,360)"/>
<path d="M0 0 C12 0 12 0 17 2 C17 2.33 17 2.66 17 3 C15.41676312 3.027193 13.83338938 3.04648306 12.25 3.0625 C10.92742187 3.07990234 10.92742187 3.07990234 9.578125 3.09765625 C7 3 7 3 3 2 C2.67 9.26 2.34 16.52 2 24 C5.63 24.33 9.26 24.66 13 25 C13 25.33 13 25.66 13 26 C8.71 26 4.42 26 0 26 C0 17.42 0 8.84 0 0 Z " fill="#C2EDF9" transform="translate(280,368)"/>
<path d="M0 0 C6.00499165 4.93267172 8.98362364 13.45873833 10 21 C10.86447212 33.39076709 9.06043431 44.13301434 3 55 C2.505 53.515 2.505 53.515 2 52 C3 50 4 48 5 46 C5.7136724 42.26228166 5.7136724 42.26228166 6 39 C6.66 39 7.32 39 8 39 C7.91809376 35.83235551 7.80535409 32.66649468 7.6875 29.5 C7.66494141 28.613125 7.64238281 27.72625 7.61914062 26.8125 C7.3795295 20.88757031 6.22231081 16.48130279 4 11 C4 9.68 4 8.36 4 7 C3.34 7 2.68 7 2 7 C1.34 4.69 0.68 2.38 0 0 Z " fill="#2EA3D4" transform="translate(403,257)"/>
<path d="M0 0 C4.29 0 8.58 0 13 0 C12.01 1.485 12.01 1.485 11 3 C8.03 3 5.06 3 2 3 C2 13.23 2 23.46 2 34 C1.34 34 0.68 34 0 34 C0 22.78 0 11.56 0 0 Z " fill="#DBF9FD" transform="translate(447,368)"/>
<path d="M0 0 C0.33 1.32 0.66 2.64 1 4 C0.34 4 -0.32 4 -1 4 C-1 4.99 -1 5.98 -1 7 C-1.66 7 -2.32 7 -3 7 C-3.37675163 14.46526385 -3.77134516 22.56758572 1.359375 28.59765625 C6.67695726 33.29850861 11.37321304 34.2547063 18.3125 34.125 C19.56675781 34.10695313 20.82101563 34.08890625 22.11328125 34.0703125 C23.06589844 34.04710937 24.01851562 34.02390625 25 34 C25.33 33.01 25.66 32.02 26 31 C27.65 31 29.3 31 31 31 C27.91416858 34.39441456 25.44435597 35.84702634 20.828125 36.3359375 C12.75651565 36.42405551 6.54298741 36.26270027 0.48046875 30.57421875 C-4.89909525 24.5745321 -5.42897823 18.95307234 -5.33203125 11.1796875 C-4.84942479 6.55802092 -3.33368925 3.33368925 0 0 Z " fill="#2DA1CF" transform="translate(100,366)"/>
<path d="M0 0 C2.05433296 1.04000606 3.34570071 2.24309423 4.875 3.94921875 C3.48167426 7.31642262 1.8960714 8.93517115 -1.125 10.94921875 C-1.970625 10.28921875 -2.81625 9.62921875 -3.6875 8.94921875 C-7.66278859 6.63632357 -9.60069044 6.4644713 -14.125 6.94921875 C-17.44686171 7.86036411 -17.44686171 7.86036411 -20.125 8.94921875 C-20.125 8.28921875 -20.125 7.62921875 -20.125 6.94921875 C-14.74271562 3.36102917 -7.6081019 4.6181385 -1.375 5.44921875 C-0.26125 5.69671875 -0.26125 5.69671875 0.875 5.94921875 C0.875 4.62921875 0.875 3.30921875 0.875 1.94921875 C-4.55921134 0.56910158 -9.50723003 -0.40189187 -15.125 -0.05078125 C-15.455 0.27921875 -15.785 0.60921875 -16.125 0.94921875 C-18.12458364 0.99002658 -20.12545254 0.99176231 -22.125 0.94921875 C-18.87541382 -5.54995361 -5.44301337 -1.89104693 0 0 Z " fill="#2FA2D2" transform="translate(128.125,362.05078125)"/>
<path d="M0 0 C0.6875 1.625 0.6875 1.625 1 4 C-0.4375 7.25 -0.4375 7.25 -2 10 C0.31 10 2.62 10 5 10 C5.1546875 8.88625 5.1546875 8.88625 5.3125 7.75 C6.11728412 4.53086351 6.51871617 3.23126854 9 1 C12.19463169 0.46254145 15.33320615 0.58009555 18.5625 0.6875 C19.43841797 0.69716797 20.31433594 0.70683594 21.21679688 0.71679688 C27.66182412 0.83091206 27.66182412 0.83091206 30 2 C29.67 3.32 29.34 4.64 29 6 C28.505 5.01 28.505 5.01 28 4 C21.73 4 15.46 4 9 4 C8.01 6.64 7.02 9.28 6 12 C2.7 12 -0.6 12 -4 12 C-2.66666667 8 -1.33333333 4 0 0 Z " fill="#37A7D3" transform="translate(383,390)"/>
<path d="M0 0 C4.29 0 8.58 0 13 0 C13 10.89 13 21.78 13 33 C12.34 33 11.68 33 11 33 C11 22.77 11 12.54 11 2 C7.37 2 3.74 2 0 2 C0 1.34 0 0.68 0 0 Z " fill="#E8FEFE" transform="translate(424,369)"/>
<path d="M0 0 C3.16873508 2.65317043 4.46514899 5.80159976 6.13671875 9.53125 C6.42102249 10.16357544 6.70532623 10.79590088 6.99824524 11.4473877 C7.59568198 12.78065089 8.18970518 14.1154483 8.78051758 15.45166016 C9.68610284 17.49684463 10.60489256 19.53570982 11.52539062 21.57421875 C12.10496391 22.8720401 12.68376654 24.17020593 13.26171875 25.46875 C13.78725342 26.64888672 14.31278809 27.82902344 14.85424805 29.04492188 C16 32 16 32 16 35 C12.7 35 9.4 35 6 35 C5.01 32.03 4.02 29.06 3 26 C3.99 26.33 4.98 26.66 6 27 C6.33 28.98 6.66 30.96 7 33 C9.31 33 11.62 33 14 33 C13.63648438 32.22809326 13.27296875 31.45618652 12.8984375 30.66088867 C11.55204814 27.79484863 10.21082051 24.92646696 8.87304688 22.05639648 C8.29307445 20.81487274 7.71105624 19.57430253 7.12695312 18.3347168 C6.28758734 16.55249199 5.45618367 14.76652415 4.625 12.98046875 C4.12226563 11.90692139 3.61953125 10.83337402 3.1015625 9.72729492 C2 7 2 7 2 4 C1.34 4 0.68 4 0 4 C0 2.68 0 1.36 0 0 Z " fill="#39A6D4" transform="translate(489,367)"/>
<path d="M0 0 C4.29 0 8.58 0 13 0 C13 0.33 13 0.66 13 1 C9.37 1 5.74 1 2 1 C2 4.96 2 8.92 2 13 C5.96 13 9.92 13 14 13 C14 9.37 14 5.74 14 2 C14.33 2 14.66 2 15 2 C15.02686553 3.97909398 15.04633375 5.95828971 15.0625 7.9375 C15.07410156 9.03964844 15.08570313 10.14179688 15.09765625 11.27734375 C15 14 15 14 14 15 C12.02486333 15.15126231 10.04321865 15.22173766 8.0625 15.25 C6.98097656 15.27578125 5.89945313 15.3015625 4.78515625 15.328125 C3.86605469 15.21984375 2.94695312 15.1115625 2 15 C-0.07647071 11.88529393 -0.3624111 10.55611254 -0.6875 6.9375 C-0.77386719 6.05964844 -0.86023438 5.18179687 -0.94921875 4.27734375 C-1 2 -1 2 0 0 Z " fill="#BDE9F6" transform="translate(238,285)"/>
<path d="M0 0 C0.66 0 1.32 0 2 0 C2.04961351 4.18089192 2.08582016 8.36162566 2.10986328 12.54272461 C2.11989146 13.96365343 2.13351741 15.38456178 2.15087891 16.80541992 C2.17526821 18.85340444 2.1865149 20.90111498 2.1953125 22.94921875 C2.20578613 24.17987061 2.21625977 25.41052246 2.22705078 26.6784668 C2.0066407 29.90285303 1.38799202 32.10634881 0 35 C-0.99 34.67 -1.98 34.34 -3 34 C-2.51781006 32.97386597 -2.51781006 32.97386597 -2.02587891 31.92700195 C-0.84084455 28.54590321 -0.68053795 25.74701918 -0.5859375 22.16796875 C-0.54726563 20.87568359 -0.50859375 19.58339844 -0.46875 18.25195312 C-0.43729986 16.89714005 -0.40605239 15.54232225 -0.375 14.1875 C-0.3367825 12.81312728 -0.2977286 11.43877756 -0.2578125 10.06445312 C-0.16364596 6.70977011 -0.078018 3.35509107 0 0 Z " fill="#C2EFFC" transform="translate(261,361)"/>
<path d="M0 0 C0 0.66 0 1.32 0 2 C1.65 2 3.3 2 5 2 C5.495 2.99 5.495 2.99 6 4 C4.7625 3.67 3.525 3.34 2.25 3 C-3.20139549 1.90036228 -8.52418614 1.80841117 -14.0625 1.8125 C-14.90071289 1.81185547 -15.73892578 1.81121094 -16.60253906 1.81054688 C-22.13332857 1.85817011 -27.51249732 2.30922675 -33 3 C-32.67 2.01 -32.34 1.02 -32 0 C-21.5969942 -1.7338343 -10.4030058 -1.7338343 0 0 Z " fill="#CAF2FA" transform="translate(326,197)"/>
<path d="M0 0 C1 2 1 2 0.44140625 3.77734375 C0.15136719 4.49019531 -0.13867188 5.20304687 -0.4375 5.9375 C-3.36341246 14.40368187 -2.64363979 22.14427511 0.64453125 30.40625 C2.79598617 34.52315509 5.69896637 37.76387433 9 41 C6 41 6 41 4.5 39.64453125 C-3.73838687 29.58254312 -4.74408638 21.75036152 -4 9 C-3.26040268 5.7557541 -2.42698129 2.42698129 0 0 Z " fill="#2DA1D1" transform="translate(199,276)"/>
<path d="M0 0 C3.38815582 2.92613457 4.77226379 5.75797628 5.2265625 10.23046875 C5.48603935 17.83785814 4.24003242 24.58506721 -0.6875 30.5625 C-1.450625 31.366875 -2.21375 32.17125 -3 33 C-3.33 31.68 -3.66 30.36 -4 29 C-3.01 28.67 -2.02 28.34 -1 28 C-1 27.34 -1 26.68 -1 26 C-0.34 26 0.32 26 1 26 C2.58176345 17.30030104 3.05342738 8.39692529 0 0 Z " fill="#39A7D4" transform="translate(384,278)"/>
<path d="M0 0 C2.39706123 -0.10854617 4.78915838 -0.18753157 7.1875 -0.25 C7.86103516 -0.28351563 8.53457031 -0.31703125 9.22851562 -0.3515625 C14.22324174 -0.44902057 16.39835158 0.6478441 20 4 C20.99 4.33 21.98 4.66 23 5 C23.25034126 7.0600371 23.47443346 9.12327466 23.6875 11.1875 C23.81511719 12.33605469 23.94273437 13.48460937 24.07421875 14.66796875 C23.99142924 18.38478183 23.16836289 20.04010104 21 23 C20.34 22.67 19.68 22.34 19 22 C19.66 21.01 20.32 20.02 21 19 C21.69502786 14.23178561 21.69437161 10.23443842 19.3125 6 C15.14762673 2.39794745 11.08722518 1.73102584 5.6875 1.375 C4.08455078 1.26285156 4.08455078 1.26285156 2.44921875 1.1484375 C1.23685547 1.07496094 1.23685547 1.07496094 0 1 C0 0.67 0 0.34 0 0 Z " fill="#2DA2D4" transform="translate(280,367)"/>
<path d="M0 0 C0.598125 0.556875 1.19625 1.11375 1.8125 1.6875 C1.8125 2.6775 1.8125 3.6675 1.8125 4.6875 C0.575 3.6975 0.575 3.6975 -0.6875 2.6875 C-4.45403954 0.20016257 -7.78308436 -0.1810999 -12.1875 0.6875 C-15.59814842 2.39282421 -17.6018659 3.56246607 -19.375 6.96875 C-20.30662365 10.08610607 -20.20016323 12.28239515 -19.8125 15.5 C-19.70164063 16.47582031 -19.59078125 17.45164062 -19.4765625 18.45703125 C-19.38117188 19.19308594 -19.28578125 19.92914063 -19.1875 20.6875 C-21.1875 19.6875 -21.1875 19.6875 -22.1875 16.6875 C-22.56499522 11.11944549 -22.46409408 5.45142177 -19.1875 0.6875 C-13.32930273 -2.42813331 -6.0743766 -2.50121389 0 0 Z " fill="#27A0D3" transform="translate(203.1875,368.3125)"/>
<path d="M0 0 C1.18613892 0.00785522 1.18613892 0.00785522 2.39624023 0.01586914 C3.67724609 0.02070313 3.67724609 0.02070313 4.98413086 0.02563477 C5.88196289 0.03401367 6.77979492 0.04239258 7.70483398 0.05102539 C8.6065332 0.05553711 9.50823242 0.06004883 10.43725586 0.06469727 C12.67234712 0.07652315 14.90730835 0.09300319 17.14233398 0.11352539 C17.80233398 1.76352539 18.46233398 3.41352539 19.14233398 5.11352539 C18.48233398 5.11352539 17.82233398 5.11352539 17.14233398 5.11352539 C16.81233398 4.45352539 16.48233398 3.79352539 16.14233398 3.11352539 C10.53233398 3.11352539 4.92233398 3.11352539 -0.85766602 3.11352539 C-1.51766602 4.76352539 -2.17766602 6.41352539 -2.85766602 8.11352539 C-3.51766602 8.11352539 -4.17766602 8.11352539 -4.85766602 8.11352539 C-2.68971549 0.16437347 -2.68971549 0.16437347 0 0 Z " fill="#D4FAFD" transform="translate(393.857666015625,392.886474609375)"/>
<path d="M0 0 C3 1 3 1 4.16796875 3.06640625 C5.11197917 5.37760417 6.05598958 7.68880208 7 10 C10.3 10.33 13.6 10.66 17 11 C17 11.66 17 12.32 17 13 C17.763125 13.144375 18.52625 13.28875 19.3125 13.4375 C22 14 22 14 25 15 C25 15.66 25 16.32 25 17 C24.38253906 16.80664062 23.76507813 16.61328125 23.12890625 16.4140625 C22.28199219 16.15367187 21.43507813 15.89328125 20.5625 15.625 C19.65113281 15.33753906 18.73976563 15.05007812 17.80078125 14.75390625 C15.08438929 13.93675121 15.08438929 13.93675121 12.54296875 13.77734375 C9.95042624 13.53443091 8.29008956 13.26936393 6 12 C3.43324473 8.21602058 1.65755458 4.25113997 0 0 Z " fill="#30A3D4" transform="translate(359,236)"/>
<path d="M0 0 C3.3 0 6.6 0 10 0 C10 0.33 10 0.66 10 1 C7.03 1 4.06 1 1 1 C1.01571045 1.82725586 1.0314209 2.65451172 1.04760742 3.50683594 C1.10996304 7.25448777 1.14899346 11.00203045 1.1875 14.75 C1.21263672 16.05195313 1.23777344 17.35390625 1.26367188 18.6953125 C1.27333984 19.94570313 1.28300781 21.19609375 1.29296875 22.484375 C1.3086792 23.63647461 1.32438965 24.78857422 1.34057617 25.97558594 C0.96815087 29.28282939 0.34563878 30.67467749 -2 33 C-2.66 33 -3.32 33 -4 33 C-4 32.34 -4 31.68 -4 31 C-3.34 31 -2.68 31 -2 31 C-1.25983116 26.95936297 -0.8316714 23.04917891 -0.68359375 18.9453125 C-0.64169922 17.83671875 -0.59980469 16.728125 -0.55664062 15.5859375 C-0.51732422 14.44382812 -0.47800781 13.30171875 -0.4375 12.125 C-0.39431641 10.9596875 -0.35113281 9.794375 -0.30664062 8.59375 C-0.20098371 5.72927375 -0.09888201 2.86471679 0 0 Z " fill="#C2F4FB" transform="translate(251,360)"/>
<path d="M0 0 C2.93409931 4.40114897 2.05052932 8.38754316 1.875 13.5546875 C1.9980411 16.94600779 2.74443937 18.91341345 4 22 C3.625 24.3125 3.625 24.3125 3 26 C-0.74866333 17.34795116 -2.64611051 9.27214333 0 0 Z " fill="#CEF4FC" transform="translate(197,283)"/>
<path d="M0 0 C3.50684747 3.27305764 5.7714582 5.74483019 6.265625 10.62109375 C6.26046875 11.55050781 6.2553125 12.47992188 6.25 13.4375 C6.25773437 14.82775391 6.25773437 14.82775391 6.265625 16.24609375 C5.98451512 19.16054176 5.21247903 21.34890497 4 24 C3.67 24 3.34 24 3 24 C3.03480469 23.02160156 3.06960938 22.04320312 3.10546875 21.03515625 C3.26297444 13.40738083 3.00272286 7.1314668 0 0 Z " fill="#31A5D6" transform="translate(306,367)"/>
<path d="M0 0 C0 0.66 0 1.32 0 2 C-0.99 2 -1.98 2 -3 2 C-3.226875 2.556875 -3.45375 3.11375 -3.6875 3.6875 C-5.37550036 6.66159588 -7.46676517 8.72008865 -10 11 C-10.66 11 -11.32 11 -12 11 C-12.33 12.32 -12.66 13.64 -13 15 C-13.66 15 -14.32 15 -15 15 C-13.19587222 9.04637831 -9.26783148 4.59779036 -4.25 1.0625 C-2 0 -2 0 0 0 Z " fill="#DBF9FE" transform="translate(244,231)"/>
<path d="M0 0 C2.6855594 2.6855594 3.06049974 5.37621328 4 9 C-0.29 9 -4.58 9 -9 9 C-8.34 7.68 -7.68 6.36 -7 5 C-7 5.66 -7 6.32 -7 7 C-5.02 6.67 -3.04 6.34 -1 6 C-0.67 4.02 -0.34 2.04 0 0 Z " fill="#B9EBFA" transform="translate(485,377)"/>
<path d="M0 0 C-3.44138378 3.20137311 -5.89352274 3.35599742 -10.515625 3.29296875 C-11.76601563 3.28330078 -13.01640625 3.27363281 -14.3046875 3.26367188 C-15.60664063 3.23853516 -16.90859375 3.21339844 -18.25 3.1875 C-19.56742187 3.17396484 -20.88484375 3.16042969 -22.2421875 3.14648438 C-25.49520321 3.11112551 -28.747396 3.06177033 -32 3 C-31.67 2.34 -31.34 1.68 -31 1 C-30.3702124 1.01047363 -29.7404248 1.02094727 -29.09155273 1.03173828 C-26.20690994 1.0736023 -23.32233134 1.09942201 -20.4375 1.125 C-19.44685547 1.14175781 -18.45621094 1.15851563 -17.43554688 1.17578125 C-12.86913172 1.20612288 -3.55768329 -1.77884164 0 0 Z " fill="#D8FAFE" transform="translate(367,400)"/>
<path d="M0 0 C0.66 0 1.32 0 2 0 C1.75636719 1.04994141 1.75636719 1.04994141 1.5078125 2.12109375 C0.97177925 5.15998993 0.86720233 7.97852282 0.875 11.0625 C0.87242187 12.08472656 0.86984375 13.10695313 0.8671875 14.16015625 C0.98206462 16.61649932 1.29224959 18.65768316 2 21 C1.01 20.67 0.02 20.34 -1 20 C-2.2014361 16.93737964 -2.16489052 13.8227868 -2.1875 10.5625 C-2.20167969 9.63566406 -2.21585938 8.70882813 -2.23046875 7.75390625 C-1.98507562 4.82166627 -1.22201577 2.66138611 0 0 Z " fill="#D7F9FD" transform="translate(209,281)"/>
<path d="M0 0 C4.09319216 0.51965744 6.0963352 1.60106806 9.0625 4.4375 C11.0696196 6.34128275 12.66200169 7.83983143 15.16796875 9.02734375 C17 10 17 10 18.25 13.125 C18.4975 14.07375 18.745 15.0225 19 16 C14.59852401 12.24040592 10.22731564 8.45189879 5.89453125 4.61328125 C3.98640159 2.98842033 2.02000545 1.48253172 0 0 Z " fill="#33A6D3" transform="translate(338,216)"/>
<path d="M0 0 C0.66 0.33 1.32 0.66 2 1 C1.67 1.680625 1.34 2.36125 1 3.0625 C-0.2242831 6.65883162 -0.39824113 9.21670923 0 13 C1.93060161 16.4617684 4.05227542 19.34704787 7 22 C5.35 21.67 3.7 21.34 2 21 C2 20.34 2 19.68 2 19 C1.34 19 0.68 19 0 19 C-2.38081145 15.42878282 -2.26906871 13.73325367 -2.25 9.5 C-2.25773437 7.78296875 -2.25773437 7.78296875 -2.265625 6.03125 C-2 3 -2 3 0 0 Z " fill="#2FA3D3" transform="translate(105,372)"/>
<path d="M0 0 C0.66 0.33 1.32 0.66 2 1 C1.27683594 1.81404297 1.27683594 1.81404297 0.5390625 2.64453125 C-0.09257812 3.35996094 -0.72421875 4.07539063 -1.375 4.8125 C-2.31472656 5.87404297 -2.31472656 5.87404297 -3.2734375 6.95703125 C-5.140599 9.08803819 -5.140599 9.08803819 -7 12 C-7.99 12 -8.98 12 -10 12 C-8.62968895 6.34746692 -4.32310587 3.4886459 0 0 Z " fill="#D9F7FD" transform="translate(210,266)"/>
<path d="M0 0 C2 1 2 1 3.3125 3.75 C5.148947 7.28686088 6.94426287 9.45355239 10 12 C12.67790896 12.87238858 12.67790896 12.87238858 15 13 C15 13.66 15 14.32 15 15 C15.66 15 16.32 15 17 15 C17 15.66 17 16.32 17 17 C10.04736279 15.43565663 5.10889696 10.89973332 1 5.25 C0 3 0 3 0 0 Z " fill="#33A2D1" transform="translate(211,300)"/>
<path d="M0 0 C4 6 4 6 4 10 C2.54257537 10.08096803 1.08387193 10.13917774 -0.375 10.1875 C-1.18710937 10.22230469 -1.99921875 10.25710938 -2.8359375 10.29296875 C-3.55007813 10.19628906 -4.26421875 10.09960938 -5 10 C-5.66 9.01 -6.32 8.02 -7 7 C-6.67 6.01 -6.34 5.02 -6 4 C-5.67 5.32 -5.34 6.64 -5 8 C-3.02 7.67 -1.04 7.34 1 7 C0.67 4.69 0.34 2.38 0 0 Z " fill="#3DA7D3" transform="translate(420,392)"/>
<path d="M0 0 C3.02346184 2.26759638 4.74154811 3.59236026 5.4375 7.3828125 C5.55461953 12.28719275 5.34613082 16.13907982 2 20 C1.34 20 0.68 20 0 20 C0 19.01 0 18.02 0 17 C0.66 17 1.32 17 2 17 C2 16.01 2 15.02 2 14 C2.66 14 3.32 14 4 14 C3.67 10.7 3.34 7.4 3 4 C2.01 3.67 1.02 3.34 0 3 C0 2.01 0 1.02 0 0 Z " fill="#D5F9FE" transform="translate(297,371)"/>
<path d="M0 0 C3 1.5 3 1.5 5 3 C4.01 3.33 3.02 3.66 2 4 C1.319375 3.649375 0.63875 3.29875 -0.0625 2.9375 C-4.56663961 1.50000864 -8.50480619 2.86529088 -13 4 C-9.05067658 -0.12883812 -5.66450001 -0.64984704 0 0 Z " fill="#D1F5FD" transform="translate(199,368)"/>
<path d="M0 0 C3.29279709 0.31865778 4.86535088 1.54515351 7 4 C6.67 4.99 6.34 5.98 6 7 C5.67 6.01 5.34 5.02 5 4 C0.85906302 3.79029441 0.85906302 3.79029441 -3 5 C-5.6723621 5.13415472 -8.32250488 5.04318541 -11 5 C-11 4.67 -11 4.34 -11 4 C-10.37351562 3.87882812 -9.74703125 3.75765625 -9.1015625 3.6328125 C-8.28429687 3.46523438 -7.46703125 3.29765625 -6.625 3.125 C-5.81289062 2.96257812 -5.00078125 2.80015625 -4.1640625 2.6328125 C-1.81326077 2.13341068 -1.81326077 2.13341068 0 0 Z " fill="#38A5D3" transform="translate(126,390)"/>
<path d="M0 0 C1.15782198 3.38084018 0.83835147 5.29663219 -0.375 8.625 C-0.65085937 9.40101563 -0.92671875 10.17703125 -1.2109375 10.9765625 C-2 13 -2 13 -3 15 C-3.99 15 -4.98 15 -6 15 C-4.36041242 9.76727367 -2.61047965 4.84803364 0 0 Z " fill="#32A9D8" transform="translate(474,368)"/>
<path d="M0 0 C0.33 0 0.66 0 1 0 C0.88192841 4.92680554 0.74997195 8.07695761 -2.4375 12 C-5 14 -5 14 -7 15 C-6.72414063 14.45859375 -6.44828125 13.9171875 -6.1640625 13.359375 C-4.84259131 10.68095688 -3.60599624 7.97114959 -2.375 5.25 C-1.92898438 4.26515625 -1.48296875 3.2803125 -1.0234375 2.265625 C-0.68570312 1.51796875 -0.34796875 0.7703125 0 0 Z " fill="#2EA5D7" transform="translate(400,296)"/>
<path d="M0 0 C0 0.66 0 1.32 0 2 C1.66666667 2.33333333 3.33333333 2.66666667 5 3 C6.66666667 3.33333333 8.33333333 3.66666667 10 4 C10 4.99 10 5.98 10 7 C9.43152344 6.80664062 8.86304688 6.61328125 8.27734375 6.4140625 C3.54635062 4.81863577 -1.18794425 3.33099414 -6 2 C-3 0 -3 0 0 0 Z " fill="#3AABD9" transform="translate(328,209)"/>
<path d="M0 0 C2.06568201 3.09852301 3.60295419 6.19392874 5.1875 9.5625 C5.73792969 10.71878906 6.28835938 11.87507813 6.85546875 13.06640625 C7.23316406 14.03449219 7.61085938 15.00257813 8 16 C7.67 16.66 7.34 17.32 7 18 C2.96151268 11.9731443 0.27124478 7.32360897 0 0 Z " fill="#3BA9D4" transform="translate(412,374)"/>
<path d="M0 0 C2.15377564 2.62198774 3.40072174 4.64404172 4 8 C3.34 8 2.68 8 2 8 C1.34 7.34 0.68 6.68 0 6 C-0.66 7.32 -1.32 8.64 -2 10 C-2.66 10 -3.32 10 -4 10 C-3.52449439 8.51965236 -3.04448784 7.04074979 -2.5625 5.5625 C-2.29566406 4.73878906 -2.02882813 3.91507812 -1.75390625 3.06640625 C-1 1 -1 1 0 0 Z " fill="#C1F2FB" transform="translate(401,371)"/>
<path d="M0 0 C6.75 1.875 6.75 1.875 9 3 C10.70363822 3.22622081 12.41328701 3.40888473 14.125 3.5625 C15.03507813 3.64628906 15.94515625 3.73007812 16.8828125 3.81640625 C17.58148438 3.87699219 18.28015625 3.93757813 19 4 C14.90535675 6.29656078 12.62364535 6.07885058 8 5 C5.248776 3.80989084 2.61634231 2.46107428 0 1 C0 0.67 0 0.34 0 0 Z " fill="#3DAAD7" transform="translate(206,329)"/>
<path d="M0 0 C0.57975586 0.16298584 1.15951172 0.32597168 1.75683594 0.49389648 C5.22673123 1.27677556 8.712623 1.10312359 12.25 1.0625 C13.36761719 1.05573242 13.36761719 1.05573242 14.5078125 1.04882812 C16.3385764 1.03709246 18.16929873 1.0191585 20 1 C19.67 1.66 19.34 2.32 19 3 C13.06 3.33 7.12 3.66 1 4 C0.67 2.68 0.34 1.36 0 0 Z " fill="#CEF5FB" transform="translate(232,400)"/>
<path d="M0 0 C2.49040942 2.49040942 2.32391014 3.43154357 2.375 6.875 C2.40335937 7.73867188 2.43171875 8.60234375 2.4609375 9.4921875 C2 12 2 12 -2 16 C-1.34 10.72 -0.68 5.44 0 0 Z " fill="#E0FCFE" transform="translate(377,375)"/>
<path d="M0 0 C3.375 2.0625 3.375 2.0625 6 4 C5.01 4.33 4.02 4.66 3 5 C2.278125 4.54625 1.55625 4.0925 0.8125 3.625 C-2.87799721 1.49271272 -5.77290158 1.35822868 -10 1 C-6.39661051 -1.35606236 -4.09064391 -1.14538029 0 0 Z " fill="#2CA7D7" transform="translate(300,362)"/>
<path d="M0 0 C0.36738281 0.62390625 0.73476563 1.2478125 1.11328125 1.890625 C3.59718087 4.66765563 5.57975134 4.97414007 9.1875 5.75 C10.27417969 5.99234375 11.36085938 6.2346875 12.48046875 6.484375 C13.72763672 6.73960937 13.72763672 6.73960937 15 7 C15 7.33 15 7.66 15 8 C9.61970091 8.41386916 4.87439483 7.23709068 0 5 C-0.33 4.34 -0.66 3.68 -1 3 C-0.67 2.01 -0.34 1.02 0 0 Z " fill="#D0F6FD" transform="translate(362,243)"/>
<path d="M0 0 C0.33 0.99 0.66 1.98 1 3 C0.01 4.485 0.01 4.485 -1 6 C-3.1640625 6.29296875 -3.1640625 6.29296875 -5.625 6.1875 C-6.44226563 6.16042969 -7.25953125 6.13335937 -8.1015625 6.10546875 C-9.04128906 6.05326172 -9.04128906 6.05326172 -10 6 C-9.67 4.35 -9.34 2.7 -9 1 C-8.67 1.99 -8.34 2.98 -8 4 C-5.69 4 -3.38 4 -1 4 C-0.67 2.68 -0.34 1.36 0 0 Z " fill="#41A9D1" transform="translate(470,396)"/>
<path d="M0 0 C0 3.67168136 -0.78368346 6.54310037 -2 10 C-2.99 10.33 -3.98 10.66 -5 11 C-4.54663921 6.12637153 -3.2910841 3.60957611 0 0 Z " fill="#25A5DC" transform="translate(396,365)"/>
<path d="M0 0 C-1.44077046 3.36179774 -3.24750021 5.59156268 -6 8 C-6.66 8 -7.32 8 -8 8 C-6.65580512 3.85539913 -4.87800266 0 0 0 Z " fill="#DBFAFE" transform="translate(113,369)"/>
<path d="M0 0 C3.08496658 3.49629546 4.93180036 6.43587428 6 11 C5.54296875 13.18359375 5.54296875 13.18359375 5 15 C4.15733289 13.25447527 3.32619962 11.5033792 2.5 9.75 C2.0359375 8.77546875 1.571875 7.8009375 1.09375 6.796875 C0 4 0 4 0 0 Z " fill="#DDFBFE" transform="translate(415,377)"/>
<path d="M0 0 C1.91541138 -0.10841951 3.83259773 -0.18578079 5.75 -0.25 C6.81734375 -0.29640625 7.8846875 -0.3428125 8.984375 -0.390625 C12 0 12 0 16 4 C10.72 3.01 5.44 2.02 0 1 C0 0.67 0 0.34 0 0 Z " fill="#CBF4FC" transform="translate(114,359)"/>
<path d="M0 0 C1.65 0 3.3 0 5 0 C5.2475 0.7425 5.495 1.485 5.75 2.25 C7.09147301 5.20124062 8.60905526 6.84814974 11 9 C5.70841026 7.59928507 3.22521956 4.14512755 0 0 Z " fill="#2AA1D1" transform="translate(195,320)"/>
<path d="M0 0 C0.68835938 0.59748047 0.68835938 0.59748047 1.390625 1.20703125 C4.52271585 3.91142062 7.63877459 6.57991771 11 9 C8.69 9 6.38 9 4 9 C0 2.25 0 2.25 0 0 Z " fill="#2BA3D5" transform="translate(221,298)"/>
<path d="M0 0 C0.66 0 1.32 0 2 0 C1.79503906 0.59167969 1.59007812 1.18335938 1.37890625 1.79296875 C0.0002429 5.83660816 -1.31750847 9.76855249 -2 14 C-2.33 14 -2.66 14 -3 14 C-3.29341888 8.32723489 -3.00559652 5.00932754 0 0 Z " fill="#D8F9FE" transform="translate(218,237)"/>
<path d="M0 0 C8.6309795 5.96583144 8.6309795 5.96583144 11 11 C7.83884224 9.63016497 7.0072908 9.0109362 5 6 C4.01 5.67 3.02 5.34 2 5 C0.8125 2.4375 0.8125 2.4375 0 0 Z " fill="#37A7D5" transform="translate(351,211)"/>
<path d="M0 0 C2.62506802 -0.02690844 5.24986173 -0.04679404 7.875 -0.0625 C8.62136719 -0.07087891 9.36773437 -0.07925781 10.13671875 -0.08789062 C15.7734375 -0.11328125 15.7734375 -0.11328125 18 1 C18 1.66 18 2.32 18 3 C16.68 3 15.36 3 14 3 C14 2.34 14 1.68 14 1 C9.38 1 4.76 1 0 1 C0 0.67 0 0.34 0 0 Z " fill="#1BA5DF" transform="translate(304,207)"/>
<path d="M0 0 C0.99386719 0.00902344 1.98773438 0.01804687 3.01171875 0.02734375 C4.15060547 0.04474609 4.15060547 0.04474609 5.3125 0.0625 C5.3125 0.3925 5.3125 0.7225 5.3125 1.0625 C3.26171875 1.29036458 1.2109375 1.51822917 -0.83984375 1.74609375 C-2.69890229 1.88136614 -2.69890229 1.88136614 -3.6875 3.0625 C-5.68708364 3.10330783 -7.68795254 3.10504356 -9.6875 3.0625 C-7.75082354 -0.81085293 -3.83275078 -0.04509119 0 0 Z " fill="#3DA9D5" transform="translate(115.6875,359.9375)"/>
<path d="M0 0 C0.33 0 0.66 0 1 0 C0.63495936 5.66442374 -0.0554321 10.00703705 -3 15 C-3.33 15 -3.66 15 -4 15 C-4.3732988 10.64484728 -3.27682292 8.64291668 -1 5 C-0.29329272 2.30745009 -0.29329272 2.30745009 0 0 Z " fill="#D8F9FD" transform="translate(399,292)"/>
<path d="M0 0 C0.66 0.33 1.32 0.66 2 1 C-0.75 5.875 -0.75 5.875 -3 7 C-3.1875 4.625 -3.1875 4.625 -3 2 C-2.01 1.34 -1.02 0.68 0 0 Z M-5 7 C-4.01 7.495 -4.01 7.495 -3 8 C-3.99 8.495 -3.99 8.495 -5 9 C-5 8.34 -5 7.68 -5 7 Z " fill="#1FA5E0" transform="translate(104,363)"/>
<path d="M0 0 C0.99 0.33 1.98 0.66 3 1 C3 5.95 3 10.9 3 16 C2.67 16 2.34 16 2 16 C1.93941406 15.18015625 1.87882813 14.3603125 1.81640625 13.515625 C1.73261719 12.43796875 1.64882812 11.3603125 1.5625 10.25 C1.48128906 9.18265625 1.40007812 8.1153125 1.31640625 7.015625 C1.05909227 4.56320038 0.68187782 2.36078709 0 0 Z " fill="#E6FDFE" transform="translate(216,372)"/>
<path d="M0 0 C0.33 1.32 0.66 2.64 1 4 C0.34 4 -0.32 4 -1 4 C-1 4.99 -1 5.98 -1 7 C-1.66 7 -2.32 7 -3 7 C-3.33 7.99 -3.66 8.98 -4 10 C-4.33 9.34 -4.66 8.68 -5 8 C-4.2578125 6.30859375 -4.2578125 6.30859375 -3.125 4.4375 C-2.75632812 3.81746094 -2.38765625 3.19742187 -2.0078125 2.55859375 C-1 1 -1 1 0 0 Z " fill="#3AA8D6" transform="translate(100,366)"/>
<path d="M0 0 C0.33 0.99 0.66 1.98 1 3 C-0.9375 6.1875 -0.9375 6.1875 -3 9 C-3.99 8.67 -4.98 8.34 -6 8 C-4.02 5.36 -2.04 2.72 0 0 Z " fill="#D4F8FD" transform="translate(406,311)"/>
<path d="M0 0 C1.52453435 2.94017338 2.95157395 5.85472185 4 9 C3.67 9.99 3.34 10.98 3 12 C0.01485372 7.89542386 -0.2954439 5.02254631 0 0 Z " fill="#CDF4FC" transform="translate(104,378)"/>
<path d="M0 0 C-5 2.5 -5 2.5 -10 5 C-10 3.68 -10 2.36 -10 1 C-6.61981469 -0.04005702 -3.5219721 -0.08004482 0 0 Z " fill="#D1F7FE" transform="translate(190,360)"/>
<path d="M0 0 C0.66 0.33 1.32 0.66 2 1 C1.01 1.33 0.02 1.66 -1 2 C-1 2.66 -1 3.32 -1 4 C-3.64 4 -6.28 4 -9 4 C-6.06195683 2.47657021 -3.13439441 1.07229283 0 0 Z " fill="#CFF7FE" transform="translate(383,331)"/>
<path d="M0 0 C5.53846154 0.61538462 5.53846154 0.61538462 7.875 2.5625 C8.431875 3.2740625 8.431875 3.2740625 9 4 C6.36 3.67 3.72 3.34 1 3 C0.67 2.01 0.34 1.02 0 0 Z " fill="#30A8D9" transform="translate(370,268)"/>
<path d="M0 0 C0.99 0.33 1.98 0.66 3 1 C1.68 3.64 0.36 6.28 -1 9 C-1.33 9 -1.66 9 -2 9 C-2.20140476 5.37471432 -1.85776765 3.13498292 0 0 Z " fill="#D3F7FC" transform="translate(189,268)"/>
<path d="M0 0 C3 3.75 3 3.75 3 6 C1.35 6 -0.3 6 -2 6 C-1.34 4.02 -0.68 2.04 0 0 Z " fill="#C7F6FD" transform="translate(482,371)"/>
</svg>
